<?xml version="1.0" encoding="UTF-8" standalone="no"?>
<!DOCTYPE svg PUBLIC "-//W3C//DTD SVG 1.1//EN" "http://www.w3.org/Graphics/SVG/1.1/DTD/svg11.dtd">
<!-- Created with Vectornator (http://vectornator.io/) -->
<svg height="100%" stroke-miterlimit="10" style="fill-rule:nonzero;clip-rule:evenodd;stroke-linecap:round;stroke-linejoin:round;" version="1.1" viewBox="0 0 256 256" width="100%" xml:space="preserve" xmlns="http://www.w3.org/2000/svg" xmlns:vectornator="http://vectornator.io" xmlns:xlink="http://www.w3.org/1999/xlink">
<defs/>
<g id="Untitled" vectornator:layerName="Untitled">
<path d="M256 0L256 0L256 256L0 256L0 0L256 0Z" fill="#ffffff" fill-opacity="0" fill-rule="nonzero" opacity="1" stroke="none"/>
<path d="M0 128C0 57.3075 57.3075 0 128 0C198.692 0 256 57.3075 256 128C256 198.692 198.692 256 128 256C57.3075 256 0 198.692 0 128Z" fill="#322d7b" fill-rule="evenodd" opacity="1" stroke="none"/>
<path d="M78.3356 179.332L33.3836 179.332L33.3836 72.0247L78.3356 72.0247C84.8011 72.1218 90.1812 72.8983 94.4758 74.3543C101.791 76.8295 107.714 81.3674 112.244 87.9679C115.878 93.3065 118.356 99.082 119.677 105.294C120.999 111.506 121.659 117.428 121.659 123.057C121.659 137.326 118.875 149.411 113.306 159.312C105.755 172.658 94.0983 179.332 78.3356 179.332ZM94.5466 99.3974C91.1958 93.5735 84.5651 90.6615 74.6545 90.6615L54.5499 90.6615L54.5499 160.695L74.6545 160.695C84.9427 160.695 92.1161 155.478 96.1748 145.043C98.3929 139.316 99.5019 132.497 99.5019 124.586C99.5019 113.666 97.8502 105.27 94.5466 99.3974Z" fill="#ffffff" fill-rule="nonzero" opacity="1" stroke="none"/>
<path d="M193.473 145.168C193.473 145.168 193.473 123.891 193.473 105.575C193.473 87.2586 193.473 71.9022 193.473 71.9022L219.246 71.9022L219.246 144.812C219.246 153.719 217.433 160.778 213.807 165.989C207.671 174.801 196.597 179.207 180.587 179.207C164.576 179.207 153.837 175.642 148.37 168.512C142.903 161.382 140.169 151.658 140.169 139.341L140.169 136.924L164.52 136.924L164.52 139.341C164.743 147.442 165.789 153.139 167.658 156.431C169.527 159.724 173.53 161.37 179.666 161.37C185.747 161.37 189.763 159.57 191.716 155.969C192.887 153.837 193.473 150.237 193.473 145.168Z" fill="#ffffff" fill-rule="nonzero" opacity="1" stroke="none"/>
</g>
</svg>
